<svg width="24" height="24" viewBox="0 0 24 24" fill="none" xmlns="http://www.w3.org/2000/svg">
<path d="M18.6947 5.26189L18.6964 5.26361C20.4724 7.03961 21.45 9.40234 21.45 11.9201C21.45 17.1039 17.2238 21.3301 12.04 21.3301C10.4643 21.3301 8.91646 20.9314 7.5392 20.181L7.36488 20.086L7.17288 20.1365L2.75984 21.2965L3.93241 16.9915L3.98693 16.7913L3.88375 16.6114C3.06672 15.1863 2.62999 13.5719 2.62999 11.9101C2.62999 6.7262 6.85613 2.50005 12.04 2.50006L12.0416 2.50005C13.2784 2.49595 14.5036 2.73804 15.6458 3.21221C16.788 3.68637 17.8245 4.38313 18.6947 5.26189ZM7.58273 19.4288L7.58574 19.4306C8.93214 20.2257 10.4698 20.6501 12.04 20.6501C16.8542 20.6501 20.78 16.7381 20.76 11.92C20.7642 10.7716 20.5404 9.63372 20.1017 8.57237C19.6629 7.51085 19.0177 6.54699 18.2037 5.73664C16.5598 4.08264 14.3624 3.17005 12.03 3.17005C7.21384 3.17005 3.28999 7.09391 3.28999 11.9101L3.28999 11.9104C3.29097 13.5534 3.75402 15.1631 4.62626 16.5555L4.62622 16.5555L4.62984 16.5611L4.70887 16.6836L3.93764 19.5084L3.70956 20.3437L4.54708 20.1236L7.46336 19.3572L7.58273 19.4288ZM9.18373 11.6244L9.18739 11.6309L9.19124 11.6373C9.3447 11.8931 9.86689 12.7594 10.6672 13.4732C11.5382 14.2515 12.3178 14.5845 12.6515 14.7271C12.7001 14.7479 12.7392 14.7646 12.7678 14.778C12.925 14.8588 13.1297 14.9358 13.3588 14.9092C13.6119 14.8799 13.79 14.7386 13.9106 14.5943C14.0449 14.4404 14.4702 13.9351 14.6799 13.6434C14.6838 13.6447 14.6878 13.6461 14.692 13.6476C14.8621 13.7196 15.5298 14.0448 15.978 14.2632C16.1396 14.3419 16.2727 14.4068 16.3436 14.4408C16.3969 14.4664 16.4469 14.4895 16.489 14.5088C16.4995 14.5137 16.5096 14.5183 16.5191 14.5227C16.5392 14.5321 16.5565 14.5402 16.5717 14.5474C16.5712 14.5744 16.5698 14.606 16.5667 14.642C16.553 14.8062 16.5101 15.0305 16.4199 15.2798L16.4198 15.2798L16.4173 15.2871C16.3743 15.4118 16.199 15.6118 15.8896 15.8107C15.5934 16.0011 15.2949 16.1134 15.1491 16.1351C14.754 16.1901 14.3002 16.211 13.8133 16.0541L13.8133 16.0541L13.8061 16.0519C13.4567 15.9451 13.0171 15.8017 12.4516 15.5525L12.4481 15.551C10.2211 14.5901 8.70174 12.3792 8.45462 12.0195C8.44314 12.0028 8.4344 11.9901 8.42847 11.9817L8.42431 11.9758L8.41999 11.9701L8.41814 11.9676C8.36029 11.8905 8.13108 11.5849 7.91576 11.1611C7.69445 10.7255 7.50999 10.2074 7.50999 9.71005C7.50999 8.78029 7.94044 8.30658 8.18483 8.03762C8.20491 8.01552 8.22374 7.99481 8.24096 7.97533C8.36043 7.84729 8.4768 7.83005 8.52999 7.83005H8.99641C9.01615 7.83098 9.03467 7.83133 9.04827 7.83151C9.06258 7.85418 9.08283 7.89127 9.10717 7.94931C9.30263 8.43781 9.81091 9.67994 9.88277 9.82366C9.88496 9.82803 9.88681 9.83189 9.88837 9.83528C9.88804 9.83595 9.8877 9.83663 9.88737 9.83729C9.81415 9.98396 9.78872 10.0349 9.72036 10.1147C9.66583 10.1783 9.61743 10.2369 9.57341 10.2903C9.4978 10.3819 9.4351 10.4578 9.37643 10.5165C9.37375 10.5192 9.37083 10.5221 9.36769 10.5252C9.30843 10.5841 9.17197 10.7196 9.1032 10.911C9.0146 11.1575 9.06039 11.4041 9.18373 11.6244ZM16.6549 14.5911C16.6549 14.5911 16.6547 14.591 16.6543 14.5907L16.6549 14.5911ZM9.02499 7.80022C9.02501 7.80017 9.02564 7.80073 9.02685 7.80204C9.02559 7.80092 9.02498 7.80027 9.02499 7.80022Z" fill="white" stroke="white"/>
</svg>
