<svg width="68" height="68" viewBox="0 0 68 68" fill="none" xmlns="http://www.w3.org/2000/svg">
<path d="M28.475 30.0532L8.44333 50.0848C7.91646 50.6111 7.4985 51.2361 7.21332 51.924C6.92815 52.6119 6.78137 53.3493 6.78137 54.094C6.78137 54.8387 6.92815 55.5761 7.21332 56.264C7.4985 56.9519 7.91646 57.5769 8.44333 58.1032C9.50599 59.1655 10.9471 59.7623 12.4497 59.7623C13.9523 59.7623 15.3933 59.1655 16.456 58.1032L36.4877 38.0658M48.7135 39.1L59.7012 50.0877C60.7635 51.1503 61.3603 52.5914 61.3603 54.094C61.3603 55.5966 60.7635 57.0377 59.7012 58.1003C58.6385 59.1627 57.1974 59.7595 55.6948 59.7595C54.1922 59.7595 52.7512 59.1627 51.6885 58.1003L34.0963 40.511M19.0768 16.728L13.0617 18.7283L7.055 8.71251L11.0613 4.70618L21.08 10.7157L19.0768 16.728ZM19.0768 16.728L27.0952 24.7463" stroke="#243C7A" stroke-width="5" stroke-linecap="round" stroke-linejoin="round"/>
<path d="M28.475 30.0531C26.0837 23.953 26.5512 15.9488 31.4812 11.0188C36.4112 6.08881 45.5062 5.00931 50.5127 8.01548L41.8993 16.6288L41.0975 25.4433L49.912 24.6443L58.5253 16.0281C61.5343 21.0375 60.452 30.1325 55.522 35.0596C50.592 39.9896 42.5907 40.4571 36.4905 38.0658" stroke="#243C7A" stroke-width="5" stroke-linecap="round" stroke-linejoin="round"/>
</svg>
