<svg width="68" height="68" viewBox="0 0 68 68" fill="none" xmlns="http://www.w3.org/2000/svg">
<path d="M34 34C37.0058 34 39.8885 32.8059 42.0139 30.6805C44.1393 28.5551 45.3334 25.6724 45.3334 22.6666C45.3334 19.6609 44.1393 16.7782 42.0139 14.6528C39.8885 12.5274 37.0058 11.3333 34 11.3333C30.9942 11.3333 28.1116 12.5274 25.9861 14.6528C23.8607 16.7782 22.6667 19.6609 22.6667 22.6666C22.6667 25.6724 23.8607 28.5551 25.9861 30.6805C28.1116 32.8059 30.9942 34 34 34Z" stroke="#243C7A" stroke-width="5" stroke-linecap="round" stroke-linejoin="round"/>
<path d="M14.1667 56.6666V53.8333C14.166 50.487 15.012 47.195 16.6258 44.2637C18.2397 41.3323 20.569 38.857 23.3969 37.0681C26.2248 35.2791 29.4594 34.2348 32.7995 34.0322C36.1396 33.8297 39.4767 34.4755 42.5 35.9096M47.1325 46.5091L50.0764 40.2673C50.156 40.0889 50.2856 39.9373 50.4495 39.831C50.6134 39.7246 50.8046 39.6681 51 39.6681C51.1954 39.6681 51.3866 39.7246 51.5505 39.831C51.7144 39.9373 51.844 40.0889 51.9237 40.2673L54.8704 46.5091L61.4522 47.5178C62.2965 47.6453 62.6309 48.7333 62.0189 49.3566L57.2589 54.2101L58.3809 61.0696C58.5254 61.9508 57.6442 62.6223 56.8877 62.2058L51 58.9673L45.1124 62.2058C44.3559 62.6223 43.4747 61.9508 43.6192 61.0725L44.7412 54.2101L39.9812 49.3566C39.3692 48.7333 39.7035 47.6453 40.5479 47.5149L47.1325 46.5091Z" stroke="#243C7A" stroke-width="5" stroke-linecap="round" stroke-linejoin="round"/>
</svg>
