<svg width="68" height="68" viewBox="0 0 68 68" fill="none" xmlns="http://www.w3.org/2000/svg">
<path d="M21.7883 28.0925H46.2117M21.7883 28.0925H7.79167M21.7883 28.0925L32.13 56.5703M21.7883 28.0925L28.5883 16.949L30.1467 14.0817M46.2117 28.0925H60.2083M46.2117 28.0925L35.87 56.5703M46.2117 28.0925L39.4117 16.949L37.808 14.0817M7.79167 28.0925C7.79167 29.2825 8.01551 30.4725 8.46034 31.5945C9.06101 33.1103 10.2793 34.5072 12.7103 37.298L22.5335 48.5633C26.4917 53.1023 28.4693 55.3747 30.8153 56.2077C31.2479 56.3607 31.6861 56.4816 32.13 56.5703M7.79167 28.0925C7.79167 26.9025 8.01551 25.7125 8.46034 24.5877C9.06101 23.0718 10.2793 21.6778 12.7103 18.8842C14.0335 17.3712 14.6937 16.6147 15.4587 16.0282C16.596 15.1614 17.914 14.5619 19.3148 14.2743C20.2612 14.0817 21.2642 14.0817 23.273 14.0817H30.1467M32.13 56.5703C33.3647 56.8147 34.6353 56.8147 35.87 56.5703M30.1467 14.0817H37.808M60.2083 28.0925C60.2083 29.2825 59.9845 30.4725 59.5397 31.5945C58.939 33.1103 57.7207 34.5072 55.2897 37.298L45.4665 48.5633C41.5083 53.1023 39.5307 55.3747 37.1847 56.2077C36.7556 56.3595 36.3162 56.4807 35.87 56.5703M60.2083 28.0925C60.2083 26.9025 59.9845 25.7125 59.5397 24.5877C58.939 23.0718 57.7207 21.6778 55.2897 18.8842C53.9665 17.3712 53.3063 16.6147 52.5413 16.0282C51.404 15.1614 50.086 14.5619 48.6852 14.2743C47.7388 14.0817 46.7358 14.0817 44.727 14.0817H37.808" stroke="#243C7A" stroke-width="5" stroke-linecap="round" stroke-linejoin="round"/>
</svg>
