<svg width="24" height="24" viewBox="0 0 24 24" fill="none" xmlns="http://www.w3.org/2000/svg">
<path d="M18.6948 5.26183L18.6965 5.26355C20.4725 7.03955 21.4501 9.40228 21.4501 11.92C21.4501 17.1039 17.2239 21.33 12.04 21.33C10.4644 21.33 8.91652 20.9313 7.53926 20.1809L7.36494 20.086L7.17294 20.1364L2.7599 21.2964L3.93247 16.9914L3.98699 16.7913L3.88381 16.6113C3.06679 15.1863 2.63005 13.5719 2.63005 11.91C2.63005 6.72614 6.85619 2.49999 12.04 2.5L12.0417 2.49999C13.2784 2.49589 14.5036 2.73798 15.6459 3.21215C16.7881 3.68631 17.8245 4.38307 18.6948 5.26183ZM7.58279 19.4287L7.5858 19.4305C8.9322 20.2256 10.4699 20.65 12.04 20.65C16.8542 20.65 20.7801 16.738 20.7601 11.92C20.7642 10.7715 20.5405 9.63366 20.1017 8.57231C19.6629 7.51079 19.0178 6.54693 18.2037 5.73658C16.5598 4.08258 14.3625 3.16999 12.03 3.16999C7.21391 3.16999 3.29005 7.09385 3.29005 11.91L3.29005 11.9103C3.29103 13.5533 3.75408 15.163 4.62632 16.5554L4.62628 16.5554L4.6299 16.5611L4.70893 16.6836L3.9377 19.5083L3.70962 20.3437L4.54714 20.1236L7.46342 19.3571L7.58279 19.4287ZM9.1838 11.6243L9.18745 11.6308L9.1913 11.6372C9.34476 11.893 9.86695 12.7594 10.6672 13.4731C11.5383 14.2514 12.3179 14.5845 12.6516 14.7271C12.7001 14.7478 12.7392 14.7645 12.7678 14.778C12.925 14.8587 13.1298 14.9357 13.3589 14.9092C13.6119 14.8798 13.7901 14.7386 13.9107 14.5943C14.045 14.4404 14.4702 13.935 14.6799 13.6433C14.6838 13.6447 14.6879 13.6461 14.6921 13.6475C14.8622 13.7195 15.5298 14.0448 15.9781 14.2631C16.1397 14.3419 16.2728 14.4067 16.3437 14.4408C16.397 14.4663 16.447 14.4894 16.489 14.5088C16.4996 14.5136 16.5097 14.5183 16.5191 14.5227C16.5393 14.532 16.5566 14.5401 16.5718 14.5473C16.5713 14.5743 16.5698 14.6059 16.5668 14.642C16.553 14.8061 16.5102 15.0305 16.4199 15.2798L16.4199 15.2798L16.4174 15.287C16.3744 15.4117 16.1991 15.6117 15.8897 15.8107C15.5935 16.0011 15.2949 16.1134 15.1492 16.135C14.7541 16.19 14.3003 16.2109 13.8133 16.0541L13.8133 16.054L13.8062 16.0518C13.4568 15.9451 13.0171 15.8016 12.4517 15.5524L12.4481 15.5509C10.2212 14.5901 8.7018 12.3791 8.45468 12.0195C8.4432 12.0028 8.43447 11.9901 8.42853 11.9817L8.42438 11.9758L8.42005 11.97L8.4182 11.9675C8.36035 11.8904 8.13115 11.5849 7.91582 11.161C7.69451 10.7254 7.51005 10.2073 7.51005 9.70999C7.51005 8.78023 7.9405 8.30652 8.18489 8.03756C8.20497 8.01546 8.2238 7.99475 8.24102 7.97527C8.36049 7.84723 8.47686 7.82999 8.53005 7.82999H8.99647C9.01621 7.83092 9.03473 7.83127 9.04833 7.83145C9.06264 7.85412 9.08289 7.89121 9.10723 7.94924C9.30269 8.43775 9.81097 9.67988 9.88284 9.8236C9.88502 9.82797 9.88687 9.83183 9.88843 9.83522C9.8881 9.83589 9.88776 9.83656 9.88743 9.83723C9.81421 9.9839 9.78878 10.0348 9.72042 10.1146C9.6659 10.1782 9.6175 10.2369 9.57347 10.2902C9.49786 10.3818 9.43516 10.4578 9.3765 10.5164C9.37381 10.5191 9.37089 10.522 9.36775 10.5251C9.30849 10.584 9.17203 10.7195 9.10326 10.9109C9.01466 11.1574 9.06045 11.404 9.1838 11.6243ZM16.6549 14.5911C16.6549 14.5911 16.6547 14.5909 16.6543 14.5906L16.6549 14.5911ZM9.02505 7.80016C9.02507 7.80011 9.0257 7.80067 9.02691 7.80198C9.02565 7.80086 9.02504 7.80021 9.02505 7.80016Z" fill="black" stroke="black"/>
</svg>
