<svg width="50" height="50" viewBox="0 0 50 50" fill="none" xmlns="http://www.w3.org/2000/svg">
<path d="M25 45.8354C36.5063 45.8354 45.8333 36.5083 45.8333 25.002C45.8333 13.4958 36.5063 4.1687 25 4.1687C13.4938 4.1687 4.16667 13.4958 4.16667 25.002C4.16667 36.5083 13.4938 45.8354 25 45.8354ZM24.4167 15.5645C24.6812 15.2999 25.032 15.139 25.4051 15.1111C25.7783 15.0832 26.149 15.1901 26.45 15.4125L26.6271 15.5625L34.9604 23.8979C35.2256 24.1625 35.3868 24.5137 35.4147 24.8873C35.4427 25.2609 35.3354 25.6321 35.1125 25.9333L34.9604 26.1083L26.625 34.4416C26.3462 34.7212 25.9719 34.8848 25.5774 34.8997C25.1828 34.9145 24.7973 34.7794 24.4983 34.5216C24.1992 34.2638 24.0089 33.9023 23.9656 33.5098C23.9222 33.1174 24.0291 32.7231 24.2646 32.4062L24.4146 32.2312L30.0854 26.5645H16.1438C15.7659 26.5645 15.4008 26.4274 15.1162 26.1788C14.8316 25.9302 14.6467 25.5869 14.5958 25.2125L14.5833 25.002C14.5834 24.6245 14.7201 24.2597 14.9683 23.9751C15.2164 23.6905 15.5593 23.5055 15.9333 23.4541L16.1458 23.4395H30.0833L24.4167 17.7729C24.1515 17.5082 23.9903 17.157 23.9624 16.7834C23.9344 16.4098 24.0417 16.0386 24.2646 15.7375L24.4167 15.5645Z" fill="#243C7A"/>
</svg>
