<svg width="68" height="68" viewBox="0 0 68 68" fill="none" xmlns="http://www.w3.org/2000/svg">
<path d="M34 38.25C43.3888 38.25 51 30.6388 51 21.25C51 11.8612 43.3888 4.25 34 4.25C24.6112 4.25 17 11.8612 17 21.25C17 30.6388 24.6112 38.25 34 38.25Z" stroke="#243C7A" stroke-width="4" stroke-linecap="round" stroke-linejoin="round"/>
<path d="M19.0785 30.2573L6.375 53.125L17.9111 53.0692C18.2807 53.0673 18.6444 53.1619 18.9663 53.3436C19.2882 53.5252 19.5571 53.7877 19.7466 54.1051L25.5 63.75L37.2313 37.9419" stroke="#243C7A" stroke-width="4" stroke-linecap="round" stroke-linejoin="round"/>
<path d="M48.6811 29.75L61.625 53.125L50.0889 53.0692C49.7193 53.0673 49.3556 53.1619 49.0337 53.3436C48.7118 53.5253 48.4429 53.7878 48.2534 54.1052L42.5 63.75L34 45.05" stroke="black" stroke-width="4" stroke-linecap="round" stroke-linejoin="round"/>
<path d="M34 29.75C38.6944 29.75 42.5 25.9444 42.5 21.25C42.5 16.5556 38.6944 12.75 34 12.75C29.3056 12.75 25.5 16.5556 25.5 21.25C25.5 25.9444 29.3056 29.75 34 29.75Z" stroke="black" stroke-width="4" stroke-linecap="round" stroke-linejoin="round"/>
</svg>
