<svg width="40" height="40" viewBox="0 0 40 40" fill="none" xmlns="http://www.w3.org/2000/svg">
<path fill-rule="evenodd" clip-rule="evenodd" d="M20.0001 36.6667C29.2051 36.6667 36.6667 29.205 36.6667 20C36.6667 10.795 29.2051 3.33337 20.0001 3.33337C10.7951 3.33337 3.33341 10.795 3.33341 20C3.33341 29.205 10.7951 36.6667 20.0001 36.6667ZM20.0001 34.6667C16.1102 34.6667 12.3797 33.1215 9.62918 30.3709C6.87865 27.6204 5.33341 23.8899 5.33341 20C5.33341 16.1102 6.87865 12.3797 9.62918 9.62914C12.3797 6.87861 16.1102 5.33337 20.0001 5.33337C23.8899 5.33337 27.6204 6.87861 30.371 9.62914C33.1215 12.3797 34.6667 16.1102 34.6667 20C34.6667 23.8899 33.1215 27.6204 30.371 30.3709C27.6204 33.1215 23.8899 34.6667 20.0001 34.6667ZM16.6684 25.7284L18.4117 27.5L24.5167 21.205C24.8274 20.8808 25.0009 20.4491 25.0009 20C25.0009 19.551 24.8274 19.1193 24.5167 18.795L18.4117 12.5L16.6667 14.2717L22.2001 20L16.6667 25.73L16.6684 25.7284Z" fill="#243C7A" fill-opacity="0.88"/>
</svg>
