<svg width="25" height="24" viewBox="0 0 25 24" fill="none" xmlns="http://www.w3.org/2000/svg">
<path d="M12.5 15.575C12.3667 15.575 12.2417 15.5543 12.125 15.513C12.0083 15.4717 11.9 15.4007 11.8 15.3L8.2 11.7C8 11.5 7.904 11.2667 7.912 11C7.92 10.7333 8.016 10.5 8.2 10.3C8.4 10.1 8.63767 9.996 8.913 9.988C9.18833 9.98 9.42567 10.0757 9.625 10.275L11.5 12.15V5C11.5 4.71667 11.596 4.47934 11.788 4.288C11.98 4.09667 12.2173 4.00067 12.5 4C12.7827 3.99934 13.0203 4.09534 13.213 4.288C13.4057 4.48067 13.5013 4.718 13.5 5V12.15L15.375 10.275C15.575 10.075 15.8127 9.979 16.088 9.987C16.3633 9.995 16.6007 10.0993 16.8 10.3C16.9833 10.5 17.0793 10.7333 17.088 11C17.0967 11.2667 17.0007 11.5 16.8 11.7L13.2 15.3C13.1 15.4 12.9917 15.471 12.875 15.513C12.7583 15.555 12.6333 15.5757 12.5 15.575ZM6.5 20C5.95 20 5.47933 19.8043 5.088 19.413C4.69667 19.0217 4.50067 18.5507 4.5 18V16C4.5 15.7167 4.596 15.4793 4.788 15.288C4.98 15.0967 5.21733 15.0007 5.5 15C5.78267 14.9993 6.02033 15.0953 6.213 15.288C6.40567 15.4807 6.50133 15.718 6.5 16V18H18.5V16C18.5 15.7167 18.596 15.4793 18.788 15.288C18.98 15.0967 19.2173 15.0007 19.5 15C19.7827 14.9993 20.0203 15.0953 20.213 15.288C20.4057 15.4807 20.5013 15.718 20.5 16V18C20.5 18.55 20.3043 19.021 19.913 19.413C19.5217 19.805 19.0507 20.0007 18.5 20H6.5Z" fill="#243C7A"/>
</svg>
