<svg width="24" height="24" viewBox="0 0 24 24" fill="none" xmlns="http://www.w3.org/2000/svg">
<path d="M11.2132 20.9983L11.2113 20.9966C6.76475 17.1061 4.42854 13.5188 4.42854 10.2857C4.42854 8.27766 5.22624 6.35184 6.64616 4.93192C8.06608 3.512 9.9919 2.7143 12 2.7143C12.9943 2.7143 13.9788 2.91014 14.8974 3.29064C15.816 3.67114 16.6507 4.22885 17.3538 4.93192C18.0568 5.635 18.6146 6.46966 18.9951 7.38827C19.3756 8.30688 19.5714 9.29144 19.5714 10.2857C19.5714 13.5943 17.1241 17.2749 12.4657 21.2763L11.2132 20.9983ZM11.2132 20.9983L11.5329 21.2751L11.5342 21.2763M11.2132 20.9983L11.5342 21.2763M11.5342 21.2763C11.6638 21.3877 11.8291 21.449 12 21.449M11.5342 21.2763L12 21.449M12 21.449C12.1708 21.449 12.3359 21.3878 12.4655 21.2764L12 21.449ZM12.6514 21.4933L12.6513 21.4933C12.4697 21.6493 12.2382 21.735 11.9988 21.7348C11.7598 21.7346 11.5287 21.6487 11.3475 21.4928C11.3472 21.4926 11.347 21.4924 11.3467 21.4922L11.0255 21.2135C11.0252 21.2132 11.025 21.213 11.0247 21.2127C6.36803 17.1373 4.14282 13.5109 4.14282 10.2857C4.14282 8.20189 4.97063 6.20339 6.44413 4.72989C7.91763 3.25639 9.91612 2.42859 12 2.42859C14.0838 2.42859 16.0823 3.25639 17.5558 4.72989C19.0293 6.20339 19.8571 8.20189 19.8571 10.2857C19.8571 13.5857 17.5273 17.3058 12.6514 21.4933ZM12 7.57145C12.7198 7.57145 13.4102 7.85741 13.9193 8.36644C14.4283 8.87547 14.7143 9.56586 14.7143 10.2857C14.7143 11.0056 14.4283 11.696 13.9193 12.205C13.4102 12.714 12.7198 13 12 13C11.2801 13 10.5897 12.714 10.0807 12.205C9.57165 11.696 9.28568 11.0056 9.28568 10.2857C9.28568 9.56586 9.57165 8.87547 10.0807 8.36644C10.5897 7.85741 11.2801 7.57145 12 7.57145ZM12 7.85716C11.3559 7.85716 10.7382 8.11303 10.2827 8.56847C9.82726 9.02392 9.57139 9.64163 9.57139 10.2857C9.57139 10.9298 9.82726 11.5475 10.2827 12.003C10.7382 12.4584 11.3559 12.7143 12 12.7143C12.6441 12.7143 13.2618 12.4584 13.7172 12.003C14.1727 11.5475 14.4285 10.9298 14.4285 10.2857C14.4285 9.64163 14.1727 9.02392 13.7172 8.56847C13.2618 8.11303 12.6441 7.85716 12 7.85716Z" fill="black" stroke="black"/>
</svg>
