<svg width="68" height="68" viewBox="0 0 68 68" fill="none" xmlns="http://www.w3.org/2000/svg">
<path d="M48.8806 35.3884C48.0759 42.0892 43.6871 44.7667 41.7916 46.7104C39.8933 48.6597 40.2333 49.0479 40.3608 51.9067C40.382 52.2604 40.3307 52.6147 40.2098 52.9478C40.0889 53.2809 39.9011 53.5857 39.658 53.8435C39.4148 54.1012 39.1215 54.3065 38.796 54.4465C38.4705 54.5866 38.1198 54.6585 37.7654 54.6579H30.2344C29.8803 54.6573 29.5301 54.5845 29.205 54.4441C28.88 54.3036 28.5869 54.0984 28.3438 53.841C28.1007 53.5835 27.9125 53.2792 27.7909 52.9467C27.6693 52.6141 27.6166 52.2603 27.6363 51.9067C27.6363 49.1017 27.8969 48.45 26.2083 46.7104C24.0549 44.557 18.9889 41.5169 18.9889 33.1557C18.976 31.0789 19.3935 29.0219 20.215 27.1144C21.0365 25.2069 22.2442 23.4903 23.7621 22.0727C25.28 20.6551 27.0751 19.5674 29.0342 18.878C30.9933 18.1887 33.074 17.9126 35.1451 18.0673C37.2162 18.222 39.2328 18.8041 41.0678 19.7769C42.9028 20.7496 44.5164 22.092 45.8068 23.7193C47.0973 25.3466 48.0366 27.2236 48.5657 29.232C49.0947 31.2403 49.2019 33.3365 48.8806 35.3884Z" stroke="#243C7A" stroke-width="5" stroke-linecap="round" stroke-linejoin="round"/>
<path d="M29.6366 54.502V58.786C29.6366 59.9562 30.2883 60.9167 31.0901 60.9167H36.907C37.7145 60.9167 38.3633 59.9534 38.3633 58.786V54.502M31.79 24.6387C30.117 24.6394 28.5128 25.3046 27.3301 26.4878C26.1474 27.671 25.483 29.2755 25.483 30.9485M54.774 33.728H59.9703M49.5436 16.694L53.2298 13.0079M52.377 48.1667L56.0631 51.85M34 6.73486V10.9367M14.8466 13.005L18.5073 16.694M12.0133 51.85L15.674 48.1667M13.226 33.728H8.03247" stroke="#243C7A" stroke-width="5" stroke-linecap="round" stroke-linejoin="round"/>
</svg>
