<svg width="24" height="24" viewBox="0 0 24 24" fill="none" xmlns="http://www.w3.org/2000/svg">
<path d="M11.2133 20.9984L11.2113 20.9967C6.76478 17.1062 4.42857 13.519 4.42857 10.2859C4.42857 8.27779 5.22627 6.35196 6.64619 4.93204C8.06611 3.51213 9.99193 2.71443 12 2.71443C12.9943 2.71443 13.9788 2.91027 14.8975 3.29077C15.8161 3.67127 16.6507 4.22897 17.3538 4.93204C18.0569 5.63512 18.6146 6.46979 18.9951 7.38839C19.3756 8.307 19.5714 9.29156 19.5714 10.2859C19.5714 13.5945 17.1242 17.275 12.4657 21.2764L11.2133 20.9984ZM11.2133 20.9984L11.533 21.2753L11.5343 21.2764M11.2133 20.9984L11.5343 21.2764M11.5343 21.2764C11.6639 21.3878 11.8291 21.4491 12 21.4491M11.5343 21.2764L12 21.4491M12 21.4491C12.1708 21.4491 12.336 21.3879 12.4655 21.2766L12 21.4491ZM12.6514 21.4934L12.6513 21.4934C12.4697 21.6494 12.2382 21.7351 11.9988 21.7349C11.7598 21.7347 11.5287 21.6489 11.3475 21.493C11.3473 21.4927 11.347 21.4925 11.3468 21.4923L11.0256 21.2136C11.0253 21.2133 11.025 21.2131 11.0247 21.2128C6.36806 17.1374 4.14285 13.5111 4.14285 10.2859C4.14285 8.20201 4.97066 6.20351 6.44416 4.73002C7.91766 3.25651 9.91615 2.42871 12 2.42871C14.0838 2.42871 16.0823 3.25651 17.5558 4.73001C19.0293 6.20351 19.8571 8.20201 19.8571 10.2859C19.8571 13.5858 17.5274 17.3059 12.6514 21.4934ZM12 7.57157C12.7199 7.57157 13.4103 7.85754 13.9193 8.36656C14.4283 8.87559 14.7143 9.56598 14.7143 10.2859C14.7143 11.0057 14.4283 11.6961 13.9193 12.2051C13.4103 12.7142 12.7199 13.0001 12 13.0001C11.2801 13.0001 10.5897 12.7142 10.0807 12.2051C9.57168 11.6961 9.28571 11.0057 9.28571 10.2859C9.28571 9.56598 9.57168 8.87559 10.0807 8.36656C10.5897 7.85754 11.2801 7.57157 12 7.57157ZM12 7.85728C11.3559 7.85728 10.7382 8.11315 10.2827 8.56859C9.82729 9.02404 9.57142 9.64176 9.57142 10.2859C9.57142 10.93 9.82729 11.5477 10.2827 12.0031C10.7382 12.4586 11.3559 12.7144 12 12.7144C12.6441 12.7144 13.2618 12.4586 13.7173 12.0031C14.1727 11.5477 14.4286 10.93 14.4286 10.2859C14.4286 9.64176 14.1727 9.02404 13.7173 8.56859C13.2618 8.11315 12.6441 7.85728 12 7.85728Z" fill="white" stroke="white"/>
</svg>
