<svg width="18" height="22" viewBox="0 0 18 22" fill="none" xmlns="http://www.w3.org/2000/svg">
<path d="M8.21326 19.9984L8.21132 19.9967C3.76478 16.1062 1.42857 12.519 1.42857 9.28585C1.42857 7.27779 2.22627 5.35196 3.64619 3.93204C5.06611 2.51213 6.99193 1.71443 9 1.71443C9.99429 1.71443 10.9788 1.91027 11.8975 2.29077C12.8161 2.67127 13.6507 3.22897 14.3538 3.93204C15.0569 4.63512 15.6146 5.46979 15.9951 6.38839C16.3756 7.307 16.5714 8.29156 16.5714 9.28585C16.5714 12.5945 14.1242 16.275 9.46571 20.2764L8.21326 19.9984ZM8.21326 19.9984L8.53297 20.2753L8.53428 20.2764M8.21326 19.9984L8.53428 20.2764M8.53428 20.2764C8.66386 20.3878 8.82909 20.4491 9 20.4491M8.53428 20.2764L9 20.4491M9 20.4491C9.1708 20.4491 9.33595 20.3879 9.4655 20.2766L9 20.4491ZM9.65138 20.4934L9.65133 20.4934C9.46974 20.6494 9.23822 20.7351 8.99883 20.7349C8.75979 20.7347 8.52874 20.6489 8.34754 20.493C8.34728 20.4927 8.34702 20.4925 8.34676 20.4923L8.02556 20.2136C8.02527 20.2133 8.02498 20.2131 8.02469 20.2128C3.36806 16.1374 1.14285 12.5111 1.14285 9.28585C1.14285 7.20201 1.97066 5.20351 3.44416 3.73002C4.91766 2.25651 6.91615 1.42871 9 1.42871C11.0838 1.42871 13.0823 2.25651 14.5558 3.73001C16.0293 5.20351 16.8571 7.20201 16.8571 9.28585C16.8571 12.5858 14.5274 16.3059 9.65138 20.4934ZM9 6.57157C9.71987 6.57157 10.4103 6.85754 10.9193 7.36656C11.4283 7.87559 11.7143 8.56598 11.7143 9.28585C11.7143 10.0057 11.4283 10.6961 10.9193 11.2051C10.4103 11.7142 9.71987 12.0001 9 12.0001C8.28012 12.0001 7.58973 11.7142 7.08071 11.2051C6.57168 10.6961 6.28571 10.0057 6.28571 9.28585C6.28571 8.56598 6.57168 7.87559 7.08071 7.36656C7.58973 6.85754 8.28012 6.57157 9 6.57157ZM9 6.85728C8.3559 6.85728 7.73818 7.11315 7.28274 7.56859C6.82729 8.02404 6.57142 8.64176 6.57142 9.28585C6.57142 9.92995 6.82729 10.5477 7.28274 11.0031C7.73818 11.4586 8.3559 11.7144 9 11.7144C9.64409 11.7144 10.2618 11.4586 10.7173 11.0031C11.1727 10.5477 11.4286 9.92995 11.4286 9.28585C11.4286 8.64176 11.1727 8.02404 10.7173 7.56859C10.2618 7.11315 9.64409 6.85728 9 6.85728Z" fill="white" stroke="white"/>
</svg>
